HIERARCHY
ROOT Hips
{
	OFFSET 0.000000 89.005402 0.000000
	CHANNELS 6 Xposition Yposition Zposition Xrotation Yrotation Zrotation
	JOINT Spine
	{
		OFFSET 0.116900 10.681000 0.373400
		CHANNELS 3 Xrotation Yrotation Zrotation
		JOINT Spine1
		{
			OFFSET 0.000000 13.840401 0.053500
			CHANNELS 3 Xrotation Yrotation Zrotation
			JOINT Spine2
			{
				OFFSET 0.000000 14.712700 -0.366200
				CHANNELS 3 Xrotation Yrotation Zrotation
				JOINT Neck
				{
					OFFSET 0.000000 35.415497 -3.314200
					CHANNELS 3 Xrotation Yrotation Zrotation
					JOINT Head
					{
						OFFSET 0.000000 16.899200 1.218300
						CHANNELS 3 Xrotation Yrotation Zrotation
						JOINT HeadTop_End
						{
							OFFSET 0.000000 22.206207 2.192500
							CHANNELS 3 Xrotation Yrotation Zrotation
							End Site
							{
								OFFSET 0.000000 22.314178 0.000000
							}
						}
					}
				}
				JOINT LeftShoulder
				{
					OFFSET 12.896400 26.716293 -4.548400
					CHANNELS 3 Xrotation Yrotation Zrotation
					JOINT LeftArm
					{
						OFFSET 19.027000 -4.857010 -1.718400
						CHANNELS 3 Xrotation Yrotation Zrotation
						JOINT LeftForeArm
						{
							OFFSET 24.179897 0.000000 0.000000
							CHANNELS 3 Xrotation Yrotation Zrotation
							JOINT LeftHand
							{
								OFFSET 27.156403 0.000000 0.000000
								CHANNELS 3 Xrotation Yrotation Zrotation
								JOINT LeftHandIndex1
								{
									OFFSET 16.441200 0.000000 0.000000
									CHANNELS 3 Xrotation Yrotation Zrotation
									JOINT LeftHandIndex2
									{
										OFFSET 4.821899 0.000000 0.000000
										CHANNELS 3 Xrotation Yrotation Zrotation
										JOINT LeftHandIndex3
										{
											OFFSET 6.386497 0.000000 0.000000
											CHANNELS 3 Xrotation Yrotation Zrotation
											JOINT LeftHandIndex4
											{
												OFFSET 5.188988 0.000000 0.000000
												CHANNELS 3 Xrotation Yrotation Zrotation
												End Site
												{
													OFFSET -0.178703 5.185913 0.000177
												}
											}
										}
									}
								}
								JOINT LeftHandThumb1
								{
									OFFSET 6.534897 -5.032593 5.900300
									CHANNELS 3 Xrotation Yrotation Zrotation
									JOINT LeftHandThumb2
									{
										OFFSET 3.818176 -2.204422 2.204423
										CHANNELS 3 Xrotation Yrotation Zrotation
										JOINT LeftHandThumb3
										{
											OFFSET 3.252098 -1.877594 1.877601
											CHANNELS 3 Xrotation Yrotation Zrotation
											JOINT LeftHandThumb4
											{
												OFFSET 5.251778 -3.032120 3.032117
												CHANNELS 3 Xrotation Yrotation Zrotation
												End Site
												{
													OFFSET 0.000023 6.780014 0.000000
												}
											}
										}
									}
								}
							}
						}
					}
				}
				JOINT RightShoulder
				{
					OFFSET -12.896300 26.716293 -4.548400
					CHANNELS 3 Xrotation Yrotation Zrotation
					JOINT RightArm
					{
						OFFSET -19.027000 -4.857010 -1.718400
						CHANNELS 3 Xrotation Yrotation Zrotation
						JOINT RightForeArm
						{
							OFFSET -24.179897 0.000000 0.000000
							CHANNELS 3 Xrotation Yrotation Zrotation
							JOINT RightHand
							{
								OFFSET -27.156403 0.000000 0.000000
								CHANNELS 3 Xrotation Yrotation Zrotation
								JOINT RightHandThumb1
								{
									OFFSET -6.591202 -4.852203 5.988100
									CHANNELS 3 Xrotation Yrotation Zrotation
									JOINT RightHandThumb2
									{
										OFFSET -3.818176 -2.204422 2.204423
										CHANNELS 3 Xrotation Yrotation Zrotation
										JOINT RightHandThumb3
										{
											OFFSET -3.252098 -1.877594 1.877601
											CHANNELS 3 Xrotation Yrotation Zrotation
											JOINT RightHandThumb4
											{
												OFFSET -5.251778 -3.032120 3.032117
												CHANNELS 3 Xrotation Yrotation Zrotation
												End Site
												{
													OFFSET -0.000023 6.780014 0.000000
												}
											}
										}
									}
								}
								JOINT RightHandIndex1
								{
									OFFSET -16.029404 0.000000 0.000000
									CHANNELS 3 Xrotation Yrotation Zrotation
									JOINT RightHandIndex2
									{
										OFFSET -5.213303 0.000000 0.000000
										CHANNELS 3 Xrotation Yrotation Zrotation
										JOINT RightHandIndex3
										{
											OFFSET -6.386528 0.000000 0.000000
											CHANNELS 3 Xrotation Yrotation Zrotation
											JOINT RightHandIndex4
											{
												OFFSET -5.189026 0.000000 0.000000
												CHANNELS 3 Xrotation Yrotation Zrotation
												End Site
												{
													OFFSET 0.236702 5.183624 0.001972
												}
											}
										}
									}
								}
							}
						}
					}
				}
			}
		}
	}
	JOINT LeftUpLeg
	{
		OFFSET 14.073000 -7.904099 -1.463000
		CHANNELS 3 Xrotation Yrotation Zrotation
		JOINT LeftLeg
		{
			OFFSET -0.109806 -34.073280 4.093200
			CHANNELS 3 Xrotation Yrotation Zrotation
			JOINT LeftFoot
			{
				OFFSET 0.109806 -29.899420 -6.319000
				CHANNELS 3 Xrotation Yrotation Zrotation
				JOINT LeftToeBase
				{
					OFFSET 1.551100 -14.988700 20.535801
					CHANNELS 3 Xrotation Yrotation Zrotation
					JOINT LeftToe_End
					{
						OFFSET 0.221200 0.570800 13.248301
						CHANNELS 3 Xrotation Yrotation Zrotation
						End Site
						{
							OFFSET 0.000000 13.262435 0.000000
						}
					}
				}
			}
		}
	}
	JOINT RightUpLeg
	{
		OFFSET -13.839300 -7.904099 -1.463000
		CHANNELS 3 Xrotation Yrotation Zrotation
		JOINT RightLeg
		{
			OFFSET 0.109694 -34.073219 4.093300
			CHANNELS 3 Xrotation Yrotation Zrotation
			JOINT RightFoot
			{
				OFFSET -0.109694 -29.899384 -6.319200
				CHANNELS 3 Xrotation Yrotation Zrotation
				JOINT RightToeBase
				{
					OFFSET -1.551100 -14.988700 20.535801
					CHANNELS 3 Xrotation Yrotation Zrotation
					JOINT RightToe_End
					{
						OFFSET -0.221200 0.570900 13.248299
						CHANNELS 3 Xrotation Yrotation Zrotation
						End Site
						{
							OFFSET 0.000000 13.262440 0.000000
						}
					}
				}
			}
		}
	}
}
MOTION
Frames: 8
Frame Time: 0.033333
8.739757 84.856346 21.385458 -6.483134 -11.984322 -1.947785 3.760263 -0.389869 1.602806 6.888029 -0.772617 4.641977 6.893959 -0.652971 4.645332 -0.171855 2.301421 -5.367373 -12.497099 11.280276 -2.817225 0.000000 0.000000 0.000000 1.034209 -3.633842 -4.024531 -16.297989 17.774334 -45.072784 -0.000005 -15.628883 -0.000020 1.980689 -4.248857 1.144576 -1.186155 0.887537 -38.427307 0.735508 3.101347 -26.677408 0.120210 1.283565 -10.699992 -0.000003 0.000001 -0.000001 3.799128 16.580972 5.878917 3.797591 15.504808 2.439738 -5.237314 -7.087941 6.199266 0.000000 -0.000000 -0.000002 1.396621 -0.281535 5.122694 2.355002 -12.280503 48.910131 0.000026 59.986334 -0.000012 8.809173 3.565807 5.359051 -5.730978 -5.860989 0.983803 19.815074 -23.736962 -7.381208 -1.829835 7.097275 -1.299648 -0.000001 0.000002 -0.000002 -2.387562 -1.559822 52.425342 0.496388 -2.584533 21.740079 0.034444 -0.692635 5.693121 0.000000 -0.000002 0.000001 -11.702948 14.516203 7.561687 27.590559 -1.352050 -3.811131 -10.380952 1.569688 1.801071 -0.000016 0.000003 0.000001 -0.000000 0.000000 0.000000 -5.825962 -2.012291 -17.012386 36.802729 0.592936 0.581187 -15.887312 5.809755 12.710571 -0.487745 -0.226803 2.634027 0.000001 -0.000000 0.000000 
7.554765 85.099907 19.778931 -5.115300 -12.149103 -1.712649 3.167373 0.055609 1.297584 5.330537 0.097438 3.670566 5.327598 0.197759 3.665915 1.301843 2.196164 -4.289764 -11.764553 8.212628 -1.810277 0.000000 0.000000 -0.000000 1.002884 -3.274527 -4.721877 -8.916119 23.409773 -48.305277 0.000001 -10.874108 -0.000010 2.178454 -6.633321 0.575924 -1.215695 0.808915 -38.098023 0.730723 3.091816 -26.588895 0.117606 1.269722 -10.583185 -0.000000 0.000000 0.000001 3.692948 16.914952 5.971167 3.806482 15.500710 2.421040 -5.288533 -7.085306 6.306325 0.000000 0.000000 -0.000000 1.284485 -0.879547 5.353078 0.912326 -6.434130 50.139015 0.000004 64.890950 -0.000006 7.988007 5.276859 5.005282 -6.102195 -5.756220 0.916040 20.016884 -23.660410 -7.174952 -1.829447 7.094071 -1.300421 -0.000002 0.000000 -0.000002 -2.396123 -1.655661 53.144438 0.496677 -2.585278 21.746629 0.031437 -0.661940 5.440101 0.000001 0.000000 0.000000 -13.987053 13.983199 8.528057 25.928462 -1.445866 -3.402261 -7.745925 2.183824 0.590342 -0.000063 -0.000003 0.000004 -0.000000 0.000000 -0.000000 -2.254637 -3.998111 -18.548540 31.206820 0.891172 0.443567 -11.765107 10.977200 14.297999 -13.175274 -0.413925 1.360123 -0.000000 0.000000 0.000000 
6.446869 85.290436 18.001015 -3.995466 -11.676354 -1.535925 2.724119 0.322551 0.998960 4.114611 0.654588 2.663101 4.110667 0.730888 2.646103 2.400550 2.207158 -3.129837 -11.029751 6.234271 -0.814439 0.000000 0.000000 -0.000000 1.023183 -3.383674 -5.625658 -2.027128 26.895231 -53.176950 0.000001 -6.359531 0.000018 3.478799 -9.267308 -1.507554 -1.279136 0.595987 -37.079113 0.728644 3.087658 -26.550284 0.113910 1.249798 -10.415174 -0.000000 -0.000000 0.000002 3.838856 17.475913 6.096601 3.846597 15.476845 2.335921 -5.385467 -7.083820 6.506184 -0.000001 -0.000000 0.000003 1.202401 -1.227573 5.724989 -0.557547 -0.947237 51.647930 0.000033 69.194802 -0.000022 7.976393 6.406811 5.170263 -6.022800 -5.796949 0.914373 20.079875 -23.636203 -7.109584 -1.837349 7.093264 -1.318397 -0.000002 -0.000003 0.000002 -2.358633 -1.711950 53.339437 0.495496 -2.582346 21.720700 0.027990 -0.624485 5.131363 0.000001 -0.000001 0.000000 -16.218899 13.520261 9.508353 24.045756 -1.228851 -2.980882 -4.682298 2.098848 -0.576431 -0.000010 -0.000002 0.000002 0.000000 0.000000 -0.000000 -0.218088 -6.267515 -19.326562 27.890775 0.900028 0.259090 -11.177499 13.479871 15.269663 -15.547286 -0.212182 0.876768 -0.000000 0.000001 -0.000000 
5.334190 85.313133 16.203445 -3.156809 -10.412242 -1.334120 2.347281 0.464794 0.683855 3.042200 0.970141 1.650702 3.041460 1.018295 1.621821 3.428791 2.284253 -1.946598 -10.267284 4.949745 0.193516 -0.000000 0.000000 0.000000 1.084945 -3.894485 -6.588359 3.148731 28.132620 -58.314550 0.000002 -3.238500 -0.000019 5.141764 -11.226866 -3.895028 -1.322054 0.403668 -36.066534 0.730737 3.091840 -26.589122 0.110924 1.233445 -10.277364 -0.000000 -0.000000 0.000001 4.166369 17.937200 6.171695 3.885643 15.452418 2.252996 -5.497191 -7.086863 6.733276 -0.000000 0.000001 0.000001 1.158811 -1.270994 6.206643 -1.667542 3.506819 53.331763 0.000052 72.875858 -0.000049 8.124367 6.821287 6.307336 -5.663023 -5.862409 1.006364 20.081441 -23.633848 -7.106953 -1.838414 7.104577 -1.315659 0.000003 0.000000 0.000002 -2.324425 -1.703433 53.093140 0.492377 -2.574446 21.650788 0.023977 -0.578266 4.750627 -0.000000 -0.000000 0.000000 -18.450901 13.213078 10.381205 22.290105 -1.021446 -2.592725 -1.508225 0.960664 -1.524738 -0.000059 0.000004 -0.000001 -0.000000 -0.000000 -0.000000 0.858802 -9.295929 -19.352583 25.099449 0.836918 0.076835 -11.712102 14.016707 15.868761 -14.557546 -0.061661 0.758266 0.000000 0.000001 0.000000 
4.095124 85.111671 14.498511 -2.515030 -8.621973 -1.133805 1.987158 0.511013 0.300932 1.979873 1.085674 0.620616 1.982160 1.100650 0.648334 4.612138 2.372893 -0.697743 -9.467280 3.766383 1.350892 -0.000000 -0.000000 0.000000 1.174992 -4.668386 -7.419798 5.534906 27.418565 -62.339765 -0.000003 -2.064871 0.000001 6.806579 -12.125910 -4.911234 -1.326147 0.353112 -35.734409 0.733378 3.097106 -26.638057 0.111072 1.234248 -10.284126 -0.000000 0.000000 -0.000003 4.306860 17.834160 6.098985 3.902226 15.441789 2.218422 -5.560096 -7.088389 6.862272 0.000000 0.000001 -0.000001 1.144267 -1.141770 6.769137 -1.959169 6.349482 55.088935 -0.000077 75.714559 0.000073 8.296292 6.496349 8.251971 -5.324341 -5.781572 1.197365 20.071665 -23.636488 -7.118169 -1.827870 7.112003 -1.287747 -0.000000 0.000000 -0.000001 -2.319661 -1.659445 52.753676 0.490263 -2.569138 21.603861 0.021168 -0.543340 4.463097 -0.000000 0.000002 0.000001 -20.827226 12.997238 11.241159 20.937115 -0.929750 -2.232929 1.524171 -0.797016 -2.331150 -0.000088 0.000003 0.000000 -0.000000 0.000000 -0.000000 1.398416 -11.833522 -18.422007 22.714624 0.920825 0.056520 -13.456602 12.911149 15.862691 -13.961582 -0.047703 0.888415 0.000000 -0.000001 -0.000000 
2.794484 84.985252 12.681023 -1.866036 -6.589909 -1.000539 1.645294 0.488830 -0.150962 0.935464 1.068934 -0.409962 0.933348 1.045141 0.054670 5.936019 2.446750 0.635828 -8.612051 2.487880 2.668822 -0.000000 0.000000 0.000000 1.285121 -5.593910 -8.005776 3.941586 24.714625 -64.463202 -0.000002 0.000002 -0.000002 7.852141 -13.718156 -4.214093 -1.334150 0.360308 -35.870986 0.735118 3.100564 -26.670231 0.114037 1.250482 -10.420929 -0.000001 0.000000 -0.000005 3.950432 17.173782 5.902340 3.931652 15.427111 2.157027 -5.557188 -7.076002 6.866903 0.000001 0.000001 0.000002 1.155073 -0.994724 7.383271 -1.443912 7.325577 56.948994 0.000099 77.116381 -0.000098 8.981758 5.397193 10.294247 -5.155895 -5.496874 1.460615 20.006970 -23.665805 -7.188001 -1.813655 7.085336 -1.267808 -0.000000 0.000000 0.000001 -2.305836 -1.646560 52.585299 0.493879 -2.578239 21.684374 0.021527 -0.547846 4.500133 0.000000 0.000002 0.000000 -22.980115 12.930358 11.705306 18.487864 -1.206679 -1.775358 5.126131 -2.940025 -2.892278 0.593144 -0.000014 -0.000002 0.000000 -0.000000 0.000000 1.810180 -12.957437 -16.425370 19.855563 0.938057 0.120070 -14.946132 10.636295 15.151400 -8.862781 -0.033650 0.589963 -0.000000 -0.000000 -0.000000 
1.588869 85.017570 10.917955 -1.275954 -4.452428 -1.006432 1.328572 0.426775 -0.567313 -0.045414 0.980978 -1.439174 -0.051566 0.912629 -0.535966 7.297483 2.517833 2.070260 -7.725870 1.419822 3.943345 -0.000000 -0.000000 -0.000000 1.410757 -6.639521 -8.361548 4.010093 22.546967 -66.602691 0.000005 -5.651764 -0.000028 7.515956 -12.157696 -3.403017 -1.386846 0.274526 -35.788453 0.737159 3.104623 -26.707985 0.117247 1.267803 -10.566985 0.000000 0.000000 -0.000002 3.221257 16.411300 5.699534 4.011099 15.385904 1.987159 -5.545110 -7.060473 6.852544 0.000000 -0.000001 0.000001 1.199253 -0.908190 8.018299 -0.557693 6.862724 59.404259 -0.000054 75.906904 0.000060 10.600151 4.183216 11.359444 -5.036393 -5.153855 1.737208 19.802032 -23.750371 -7.396969 -1.814860 7.050436 -1.290698 -0.000001 0.000002 -0.000001 -2.211955 -1.730201 52.659772 0.500097 -2.593825 21.822347 0.025433 -0.595547 4.892913 0.000000 0.000002 0.000000 -25.640713 12.771719 12.141792 19.723672 -1.734502 -1.571520 2.166833 -5.629216 -3.295886 3.721214 -0.000000 0.000002 -0.000000 0.000000 0.000000 2.554270 -13.174633 -14.038685 16.869271 0.790621 0.134729 -15.520065 7.942288 13.869573 -4.900395 -0.030452 0.517937 0.000000 -0.000001 -0.000000 
0.691776 84.964958 9.441821 -0.939560 -2.346127 -0.994729 1.012746 0.339295 -0.854124 -0.994821 0.847946 -2.501617 -1.004630 0.728631 -1.142945 8.737851 2.609553 3.597996 -6.850006 0.906822 4.864803 0.000000 0.000000 -0.000000 1.549066 -7.800364 -8.567076 5.458995 20.816328 -68.385439 0.000005 -15.786113 -0.000007 6.731904 -8.746016 -3.005952 -1.466621 0.094029 -35.317853 0.733472 3.097288 -26.639787 0.119477 1.279718 -10.667489 -0.000001 -0.000000 -0.000002 2.621028 15.974038 5.591084 4.104261 15.331905 1.785247 -5.584815 -7.085552 6.910778 -0.000000 0.000000 -0.000002 1.281730 -0.897010 8.642277 0.280411 5.090364 62.318571 0.000127 72.145833 -0.000128 13.564348 3.183267 11.306795 -4.744364 -5.054750 1.924660 19.460403 -23.869816 -7.734795 -1.848288 7.108111 -1.342325 -0.000000 -0.000001 -0.000000 -2.029921 -1.901349 52.881435 0.494609 -2.580046 21.700339 0.030259 -0.649388 5.336613 0.000003 0.000004 0.000001 -27.964454 11.498474 13.713406 23.519833 -2.358823 -1.655833 -0.784915 -7.079733 -9.084431 2.752061 -0.000002 -0.000001 -0.000000 0.000000 0.000001 3.002500 -13.261452 -12.268193 14.989666 0.761385 0.157213 -15.762070 5.571180 13.005794 -2.378471 -0.009309 0.117085 -0.000000 -0.000000 -0.000000 
